<svg xmlns="http://www.w3.org/2000/svg" version="1.1"
  xmlns:xlink="http://www.w3.org/1999/xlink"
  xmlns:svgjs="http://svgjs.com/svgjs" width="512" height="512" x="0" y="0" viewBox="0 0 512 512" style="enable-background:new 0 0 512 512" xml:space="preserve" class="">
  <g>
    <g xmlns="http://www.w3.org/2000/svg">
      <g id="Layer_2">
        <g id="Alarm_Clock">
          <path d="m96 .013c-52.991-.029-95.972 42.906-96 95.897v.102c.087 18.189 5.42 35.967 15.36 51.2l145.818-121.6c-17.692-16.492-40.991-25.643-65.178-25.599zm320 0c-24.184-.028-47.477 9.121-65.178 25.6l145.818 121.6c9.929-15.238 15.262-33.013 15.36-51.2.028-52.991-42.907-95.972-95.898-96-.034 0-.068 0-.102 0zm-160 64c-123.542-.17-223.83 99.843-224 223.385-.067 48.541 15.658 95.786 44.8 134.605l-40.09 40.09c-6.249 6.228-6.267 16.342-.039 22.591l.039.039 22.579 22.579c6.255 6.236 16.376 6.236 22.63 0l40.09-40.09c79.352 59.7 188.629 59.7 267.981 0l40.09 40.09c6.255 6.236 16.376 6.236 22.63 0l22.63-22.63c6.236-6.255 6.236-16.376 0-22.63l-40.14-40.039c74.114-98.913 54.01-239.179-44.902-313.293-38.752-29.036-85.875-44.719-134.298-44.697zm89.958 291.481-19.968 24.986c-5.5 6.898-15.551 8.031-22.449 2.531-.009-.007-.019-.015-.028-.022l-64.512-51.61c-9.479-7.596-14.998-19.085-15.002-31.232v-124.16c0-8.822 7.152-15.974 15.974-15.974h32c8.831 0 15.997 7.144 16.026 15.974v112.64l55.501 44.186c6.866 5.539 7.964 15.585 2.458 22.477z" fill="#000000" data-original="#000000" style="" class=""></path>
        </g>
      </g>
    </g>
  </g>
</svg>
