<svg xmlns="http://www.w3.org/2000/svg" version="1.1"
  xmlns:xlink="http://www.w3.org/1999/xlink"
  xmlns:svgjs="http://svgjs.com/svgjs" width="512" height="512" x="0" y="0" viewBox="0 0 512 512" style="enable-background:new 0 0 512 512" xml:space="preserve" class="">
  <g>
    <path xmlns="http://www.w3.org/2000/svg" style="" d="M453.319,85.089c0-18.661-15.129-33.788-33.79-33.788c-6.528,0-51.562,0-57.692,0  c-12.096,0-306.382,0-328.048,0C15.13,51.3,0,66.428,0,85.089v385.739c0,9.658,4.059,18.362,10.556,24.52h408.973v9.269h59.186  c14.542,0,26.938-9.188,31.702-22.076C514.365,472.105,515.761,492.056,453.319,85.089z" fill="#bababa" data-original="#bababa"></path>
    <path xmlns="http://www.w3.org/2000/svg" style="" d="M473.953,470.827v-251.26L453.319,85.089c0-18.661-15.129-33.788-33.79-33.788  c-37.62,0-19.876,0-57.692,0h-8.253c-15.479,0-271.878,0-299.161,0c-18.659,0-33.789,15.127-33.789,33.788v385.739  c0,9.658,4.059,18.362,10.556,24.52h388.34v9.269h20.633C458.823,504.617,473.953,489.489,473.953,470.827z" fill="#a8a8a8" data-original="#a8a8a8"></path>
    <path xmlns="http://www.w3.org/2000/svg" style="" d="M419.529,51.3c-6.716,0-50.52,0-57.692,0c-218.108,0-114.932,0-328.048,0  C15.13,51.3,0,66.428,0,85.089v385.739c0,18.662,15.13,33.789,33.789,33.789h385.74c18.661,0,33.79-15.127,33.79-33.789V85.089  C453.319,66.428,438.19,51.3,419.529,51.3z" fill="#e6e6e6" data-original="#e6e6e6" class=""></path>
    <path xmlns="http://www.w3.org/2000/svg" style="" d="M20.633,470.827V85.089c0-18.661,15.13-33.788,33.789-33.788c-11.63,0-8.966,0-20.633,0  C15.13,51.3,0,66.428,0,85.089v385.739c0,18.662,15.13,33.789,33.789,33.789h20.633C35.764,504.617,20.633,489.489,20.633,470.827z" fill="#cccbca" data-original="#cccbca" class=""></path>
    <path xmlns="http://www.w3.org/2000/svg" style="" d="M419.529,51.3c-12.028,0-47.44,0-57.692,0c-7.615,0-306.935,0-328.048,0  C15.13,51.3,0,66.428,0,85.089v86.796h453.319V85.089C453.319,66.428,438.19,51.3,419.529,51.3z" fill="#966de8" data-original="#ea473b" class=""></path>
    <path xmlns="http://www.w3.org/2000/svg" style="" d="M20.633,85.089c0-18.661,15.13-33.788,33.789-33.788c-11.63,0-8.966,0-20.633,0  C15.13,51.3,0,66.428,0,85.089v86.796h20.633V85.089z" fill="#8760d6" data-original="#d63322" class=""></path>
    <g xmlns="http://www.w3.org/2000/svg">
      <path style="" d="M361.837,81.508v7.034c0,6.838-5.542,7.222-12.38,7.222h-4.127c-6.837,0-12.38-0.384-12.38-7.222   v-7.033c-6.546,4.568-10.833,12.15-10.833,20.738c0,13.96,11.317,25.276,25.276,25.276c13.96,0,25.276-11.316,25.276-25.276   C372.67,93.659,368.383,86.076,361.837,81.508z" fill="#414356" data-original="#414356"></path>
      <path style="" d="M233.91,81.508v7.034c0,6.838-5.542,6.19-12.38,6.19h-4.127c-6.837,0-12.38,0.648-12.38-6.19v-7.033   c-6.546,4.568-10.833,12.15-10.833,20.738c0,13.96,11.317,25.276,25.276,25.276c13.96,0,25.276-11.316,25.276-25.276   C244.743,93.659,240.456,86.076,233.91,81.508z" fill="#414356" data-original="#414356"></path>
      <path style="" d="M105.983,81.508c0,10.87,1.28,14.255-12.38,14.255c-17.811,0-16.507-1.539-16.507-14.255   c-20.167,14.074-10.282,46.014,14.443,46.014c13.96,0,25.276-11.316,25.276-25.276C116.815,93.659,112.529,86.076,105.983,81.508z" fill="#414356" data-original="#414356"></path>
    </g>
    <g xmlns="http://www.w3.org/2000/svg">
      <path style="" d="M343.783,102.247c0-0.478,0.018-0.953,0.044-1.425c-6.127-0.743-10.877-5.952-10.877-12.28v-7.033   c-6.546,4.568-10.833,12.15-10.833,20.738c0,13.96,11.317,25.276,25.276,25.276c3.877,0,7.549-0.875,10.833-2.436   C349.688,121.03,343.783,112.329,343.783,102.247z" fill="#2f3242" data-original="#2f3242"></path>
      <path style="" d="M215.856,102.247c0-0.478,0.018-0.953,0.044-1.425c-6.127-0.743-10.877-5.952-10.877-12.28v-7.033   c-6.546,4.568-10.833,12.15-10.833,20.738c0,13.96,11.317,25.276,25.276,25.276c3.877,0,7.549-0.875,10.833-2.436   C221.761,121.03,215.856,112.329,215.856,102.247z" fill="#2f3242" data-original="#2f3242"></path>
      <path style="" d="M87.973,100.822c-6.127-0.743-10.877-5.952-10.877-12.28v-7.033   c-6.546,4.568-10.833,12.15-10.833,20.738c0,18.615,19.443,30.759,36.108,22.84C93.317,120.784,87.387,111.379,87.973,100.822z" fill="#2f3242" data-original="#2f3242"></path>
    </g>
    <rect xmlns="http://www.w3.org/2000/svg" y="171.88" style="" width="453.32" height="28.887" fill="#a882f4" data-original="#f77c79" class=""></rect>
    <rect xmlns="http://www.w3.org/2000/svg" y="171.88" style="" width="20.633" height="28.887" fill="#966de8" data-original="#dd6464" class=""></rect>
    <path xmlns="http://www.w3.org/2000/svg" id="SVGCleanerId_0" style="" d="M93.603,7.384c6.838,0,12.38,5.543,12.38,12.38v68.778  c0,6.838-5.542,12.38-12.38,12.38h-4.127c-6.837,0-12.38-5.542-12.38-12.38V19.764c0-6.837,5.543-12.38,12.38-12.38H93.603z" fill="#585a60" data-original="#585a60" class=""></path>
    <path xmlns="http://www.w3.org/2000/svg" id="SVGCleanerId_1" style="" d="M221.53,7.384c6.838,0,12.38,5.543,12.38,12.38v68.778  c0,6.838-5.542,12.38-12.38,12.38h-4.127c-6.837,0-12.38-5.542-12.38-12.38V19.764c0-6.837,5.543-12.38,12.38-12.38H221.53z" fill="#585a60" data-original="#585a60" class=""></path>
    <path xmlns="http://www.w3.org/2000/svg" id="SVGCleanerId_2" style="" d="M349.457,7.384c6.838,0,12.38,5.543,12.38,12.38v68.778  c0,6.838-5.542,12.38-12.38,12.38h-4.127c-6.837,0-12.38-5.542-12.38-12.38V19.764c0-6.837,5.543-12.38,12.38-12.38H349.457z" fill="#585a60" data-original="#585a60" class=""></path>
    <g xmlns="http://www.w3.org/2000/svg">
      <path id="SVGCleanerId_0_1_" style="" d="M93.603,7.384c6.838,0,12.38,5.543,12.38,12.38v68.778   c0,6.838-5.542,12.38-12.38,12.38h-4.127c-6.837,0-12.38-5.542-12.38-12.38V19.764c0-6.837,5.543-12.38,12.38-12.38H93.603z" fill="#585a60" data-original="#585a60" class=""></path>
    </g>
    <g xmlns="http://www.w3.org/2000/svg">
      <path id="SVGCleanerId_1_1_" style="" d="M221.53,7.384c6.838,0,12.38,5.543,12.38,12.38v68.778   c0,6.838-5.542,12.38-12.38,12.38h-4.127c-6.837,0-12.38-5.542-12.38-12.38V19.764c0-6.837,5.543-12.38,12.38-12.38H221.53z" fill="#585a60" data-original="#585a60" class=""></path>
    </g>
    <g xmlns="http://www.w3.org/2000/svg">
      <path id="SVGCleanerId_2_1_" style="" d="M349.457,7.384c6.838,0,12.38,5.543,12.38,12.38v68.778   c0,6.838-5.542,12.38-12.38,12.38h-4.127c-6.837,0-12.38-5.542-12.38-12.38V19.764c0-6.837,5.543-12.38,12.38-12.38H349.457z" fill="#585a60" data-original="#585a60" class=""></path>
    </g>
    <g xmlns="http://www.w3.org/2000/svg">
      <path style="" d="M91.54,88.542V19.764c0-4.994,2.964-9.286,7.222-11.244c-1.572-0.722-3.315-1.136-5.158-1.136   h-4.127c-6.837,0-12.38,5.543-12.38,12.38v68.778c0,6.838,5.543,12.38,12.38,12.38h4.127c1.844,0,3.587-0.414,5.158-1.136   C94.503,97.829,91.54,93.536,91.54,88.542z" fill="#414356" data-original="#414356"></path>
      <path style="" d="M219.467,88.542V19.764c0-4.994,2.964-9.286,7.222-11.244c-1.572-0.722-3.315-1.136-5.158-1.136   h-4.127c-6.837,0-12.38,5.543-12.38,12.38v68.778c0,6.838,5.543,12.38,12.38,12.38h4.127c1.844,0,3.587-0.414,5.158-1.136   C222.43,97.829,219.467,93.536,219.467,88.542z" fill="#414356" data-original="#414356"></path>
      <path style="" d="M347.394,88.542V19.764c0-4.994,2.964-9.286,7.222-11.244c-1.572-0.722-3.315-1.136-5.158-1.136   h-4.127c-6.837,0-12.38,5.543-12.38,12.38v68.778c0,6.838,5.543,12.38,12.38,12.38h4.127c1.844,0,3.587-0.414,5.158-1.136   C350.357,97.829,347.394,93.536,347.394,88.542z" fill="#414356" data-original="#414356"></path>
    </g>
    <path xmlns="http://www.w3.org/2000/svg" style="" d="M301.414,322.712l-52.075-7.567l-23.289-47.188c-2.265-4.59-8.834-4.595-11.101,0l-23.289,47.188  l-52.075,7.567c-5.066,0.735-7.1,6.982-3.432,10.558l37.682,36.732l-8.895,51.865c-0.865,5.045,4.447,8.91,8.982,6.526  l46.577-24.486c50.561,26.581,47.295,25.197,49.457,25.197c3.823,0,6.752-3.447,6.101-7.236l-8.894-51.865l37.682-36.732  C308.51,329.698,306.486,323.448,301.414,322.712z" fill="#ffa92c" data-original="#ffa92c" class=""></path>
    <g xmlns="http://www.w3.org/2000/svg">
      <path style="" d="M198.984,365.875l-37.681-36.732c-2.89-2.816-2.377-7.664,1.19-9.76l-22.908,3.329   c-5.066,0.735-7.1,6.982-3.432,10.558l37.682,36.732l-8.895,51.865c-0.865,5.045,4.447,8.91,8.982,6.526l16.191-8.512   C189.832,418.326,189.375,421.91,198.984,365.875z" fill="#ff8828" data-original="#ff8828"></path>
      <path style="" d="M211.401,311.804c3.093-0.447,6.316-2.625,8.232-6.506l12.423-25.172l-6.007-12.168   c-2.265-4.59-8.834-4.595-11.101,0l-23.038,46.679l19.486-2.832C211.397,311.805,211.396,311.805,211.401,311.804z" fill="#ff8828" data-original="#ff8828"></path>
    </g>
    <g xmlns="http://www.w3.org/2000/svg">
    </g>
    <g xmlns="http://www.w3.org/2000/svg">
    </g>
    <g xmlns="http://www.w3.org/2000/svg">
    </g>
    <g xmlns="http://www.w3.org/2000/svg">
    </g>
    <g xmlns="http://www.w3.org/2000/svg">
    </g>
    <g xmlns="http://www.w3.org/2000/svg">
    </g>
    <g xmlns="http://www.w3.org/2000/svg">
    </g>
    <g xmlns="http://www.w3.org/2000/svg">
    </g>
    <g xmlns="http://www.w3.org/2000/svg">
    </g>
    <g xmlns="http://www.w3.org/2000/svg">
    </g>
    <g xmlns="http://www.w3.org/2000/svg">
    </g>
    <g xmlns="http://www.w3.org/2000/svg">
    </g>
    <g xmlns="http://www.w3.org/2000/svg">
    </g>
    <g xmlns="http://www.w3.org/2000/svg">
    </g>
    <g xmlns="http://www.w3.org/2000/svg">
    </g>
  </g>
</svg>
